<svg width="13" height="13" viewBox="0 0 13 13" fill="none" xmlns="http://www.w3.org/2000/svg">
<path fill-rule="evenodd" clip-rule="evenodd" d="M1.8 0H1.75C1.521 0 1.324 7.45058e-09 1.15 0.041C0.880636 0.105365 0.63435 0.243046 0.438431 0.438789C0.242511 0.634532 0.104608 0.880694 0.04 1.15C-3.72529e-08 1.324 0 1.52 0 1.75V4.25C0 4.479 7.45058e-09 4.676 0.041 4.85C0.105365 5.11936 0.243046 5.36565 0.438789 5.56157C0.634532 5.75749 0.880694 5.89539 1.15 5.96C1.324 6 1.52 6 1.75 6H4.25C4.479 6 4.676 6 4.85 5.959C5.11936 5.89464 5.36565 5.75695 5.56157 5.56121C5.75749 5.36547 5.89539 5.11931 5.96 4.85C6 4.676 6 4.48 6 4.25V1.75C6 1.521 6 1.324 5.959 1.15C5.89464 0.880636 5.75695 0.63435 5.56121 0.438431C5.36547 0.242511 5.11931 0.104608 4.85 0.04C4.676 -3.72529e-08 4.48 0 4.25 0H1.8ZM1.383 1.014C1.426 1.004 1.493 1 1.8 1H4.2C4.508 1 4.574 1.003 4.617 1.014C4.70683 1.03548 4.78895 1.08143 4.85426 1.14674C4.91957 1.21205 4.96552 1.29417 4.987 1.384C4.997 1.426 5 1.492 5 1.8V4.2C5 4.508 4.997 4.574 4.986 4.617C4.96452 4.70683 4.91857 4.78895 4.85326 4.85426C4.78795 4.91957 4.70583 4.96552 4.616 4.987C4.575 4.996 4.509 5 4.2 5H1.8C1.492 5 1.426 4.997 1.383 4.986C1.29317 4.96452 1.21105 4.91857 1.14574 4.85326C1.08043 4.78795 1.03448 4.70583 1.013 4.616C1.004 4.575 1 4.509 1 4.2V1.8C1 1.492 1.003 1.426 1.014 1.383C1.03548 1.29317 1.08143 1.21105 1.14674 1.14574C1.21205 1.08043 1.29417 1.03448 1.384 1.013L1.383 1.014ZM8.8 0H8.75C8.521 0 8.324 7.45058e-09 8.15 0.041C7.88064 0.105365 7.63435 0.243046 7.43843 0.438789C7.24251 0.634532 7.10461 0.880694 7.04 1.15C7 1.324 7 1.52 7 1.75V4.25C7 4.479 7 4.676 7.041 4.85C7.10537 5.11936 7.24305 5.36565 7.43879 5.56157C7.63453 5.75749 7.88069 5.89539 8.15 5.96C8.324 6 8.52 6 8.75 6H11.25C11.479 6 11.676 6 11.85 5.959C12.1194 5.89464 12.3656 5.75695 12.5616 5.56121C12.7575 5.36547 12.8954 5.11931 12.96 4.85C13 4.676 13 4.48 13 4.25V1.75C13 1.521 13 1.324 12.959 1.15C12.8946 0.880636 12.757 0.63435 12.5612 0.438431C12.3655 0.242511 12.1193 0.104608 11.85 0.04C11.676 -3.72529e-08 11.48 0 11.25 0H8.8ZM8.383 1.014C8.426 1.004 8.493 1 8.8 1H11.2C11.508 1 11.574 1.003 11.617 1.014C11.7068 1.03548 11.789 1.08143 11.8543 1.14674C11.9196 1.21205 11.9655 1.29417 11.987 1.384C11.997 1.426 12 1.492 12 1.8V4.2C12 4.508 11.996 4.574 11.986 4.617C11.9645 4.70683 11.9186 4.78895 11.8533 4.85426C11.788 4.91957 11.7058 4.96552 11.616 4.987C11.574 4.997 11.508 5 11.2 5H8.8C8.492 5 8.426 4.997 8.383 4.986C8.29317 4.96452 8.21105 4.91857 8.14574 4.85326C8.08043 4.78795 8.03448 4.70583 8.013 4.616C8.004 4.575 8 4.509 8 4.2V1.8C8 1.492 8.003 1.426 8.014 1.383C8.03548 1.29317 8.08142 1.21105 8.14674 1.14574C8.21205 1.08043 8.29417 1.03448 8.384 1.013L8.383 1.014ZM1.75 7H4.25C4.479 7 4.676 7 4.85 7.041C5.11936 7.10537 5.36565 7.24305 5.56157 7.43879C5.75749 7.63453 5.89539 7.88069 5.96 8.15C6 8.324 6 8.52 6 8.75V11.25C6 11.479 6 11.676 5.959 11.85C5.89464 12.1194 5.75695 12.3656 5.56121 12.5616C5.36547 12.7575 5.11931 12.8954 4.85 12.96C4.676 13 4.48 13 4.25 13H1.75C1.521 13 1.324 13 1.15 12.959C0.880636 12.8946 0.63435 12.757 0.438431 12.5612C0.242511 12.3655 0.104608 12.1193 0.04 11.85C-3.72529e-08 11.676 0 11.48 0 11.25V8.75C0 8.521 7.45058e-09 8.324 0.041 8.15C0.105365 7.88064 0.243046 7.63435 0.438789 7.43843C0.634532 7.24251 0.880694 7.10461 1.15 7.04C1.324 7 1.52 7 1.75 7ZM1.8 8C1.492 8 1.426 8.003 1.383 8.014C1.29317 8.03548 1.21105 8.08142 1.14574 8.14674C1.08043 8.21205 1.03448 8.29417 1.013 8.384C1.004 8.425 1 8.491 1 8.8V11.2C1 11.508 1.003 11.574 1.014 11.617C1.03548 11.7068 1.08143 11.789 1.14674 11.8543C1.21205 11.9196 1.29417 11.9655 1.384 11.987C1.426 11.997 1.492 12 1.8 12H4.2C4.508 12 4.574 11.996 4.617 11.986C4.70683 11.9645 4.78895 11.9186 4.85426 11.8533C4.91957 11.788 4.96552 11.7058 4.987 11.616C4.997 11.574 5 11.508 5 11.2V8.8C5 8.492 4.997 8.426 4.986 8.383C4.96452 8.29317 4.91857 8.21105 4.85326 8.14574C4.78795 8.08043 4.70583 8.03448 4.616 8.013C4.575 8.004 4.509 8 4.2 8H1.8ZM8.8 7H8.75C8.521 7 8.324 7 8.15 7.041C7.88064 7.10537 7.63435 7.24305 7.43843 7.43879C7.24251 7.63453 7.10461 7.88069 7.04 8.15C7 8.324 7 8.52 7 8.75V11.25C7 11.479 7 11.676 7.041 11.85C7.10537 12.1194 7.24305 12.3656 7.43879 12.5616C7.63453 12.7575 7.88069 12.8954 8.15 12.96C8.324 13.001 8.521 13.001 8.75 13.001H11.25C11.479 13.001 11.676 13.001 11.85 12.96C12.1192 12.8955 12.3653 12.7577 12.561 12.562C12.7567 12.3663 12.8945 12.1202 12.959 11.851C13 11.677 13 11.48 13 11.251V8.75C13 8.521 13 8.324 12.959 8.15C12.8946 7.88064 12.757 7.63435 12.5612 7.43843C12.3655 7.24251 12.1193 7.10461 11.85 7.04C11.676 7 11.48 7 11.25 7H8.8ZM8.383 8.014C8.426 8.004 8.493 8 8.8 8H11.2C11.508 8 11.574 8.003 11.617 8.014C11.7068 8.03548 11.789 8.08142 11.8543 8.14674C11.9196 8.21205 11.9655 8.29417 11.987 8.384C11.997 8.426 12 8.492 12 8.8V11.2C12 11.508 11.996 11.574 11.986 11.617C11.9645 11.7068 11.9186 11.789 11.8533 11.8543C11.788 11.9196 11.7058 11.9655 11.616 11.987C11.574 11.997 11.508 12 11.2 12H8.8C8.492 12 8.426 11.996 8.383 11.986C8.29317 11.9645 8.21105 11.9186 8.14574 11.8533C8.08043 11.788 8.03448 11.7058 8.013 11.616C8.004 11.575 8 11.509 8 11.2V8.8C8 8.492 8.003 8.426 8.014 8.383C8.03548 8.29317 8.08142 8.21105 8.14674 8.14574C8.21205 8.08043 8.29417 8.03448 8.384 8.013L8.383 8.014Z" fill="#818181"/>
</svg>
