<svg width="18" height="18" viewBox="0 0 18 18" fill="none" xmlns="http://www.w3.org/2000/svg">
<path d="M15.0223 5.07305L11.2395 1.29023C11.134 1.18477 10.9916 1.125 10.8422 1.125H3.375C3.06387 1.125 2.8125 1.37637 2.8125 1.6875V16.3125C2.8125 16.6236 3.06387 16.875 3.375 16.875H14.625C14.9361 16.875 15.1875 16.6236 15.1875 16.3125V5.47207C15.1875 5.32266 15.1277 5.17852 15.0223 5.07305ZM13.8902 5.73047H10.582V2.42227L13.8902 5.73047ZM13.9219 15.6094H4.07812V2.39062H9.38672V6.1875C9.38672 6.3833 9.4645 6.57109 9.60296 6.70954C9.74141 6.848 9.9292 6.92578 10.125 6.92578H13.9219V15.6094Z" fill="#4A90E2"/>
</svg>
