<svg width="18" height="18" viewBox="0 0 18 18" fill="none" xmlns="http://www.w3.org/2000/svg">
<path d="M9.00021 15.8571C12.7873 15.8571 15.8574 12.7871 15.8574 8.99996C15.8574 5.21287 12.7873 2.14282 9.00021 2.14282C5.21311 2.14282 2.14307 5.21287 2.14307 8.99996C2.14307 12.7871 5.21311 15.8571 9.00021 15.8571Z" stroke="#818181" stroke-linecap="round" stroke-linejoin="round"/>
<path fill-rule="evenodd" clip-rule="evenodd" d="M9.00019 9.85711C9.42876 9.85711 9.85733 9.42854 9.85733 8.99996C9.85733 8.57139 9.42876 8.14282 9.00019 8.14282C8.57162 8.14282 8.1439 8.57139 8.1439 8.99996C8.1439 9.42854 8.57162 9.85711 9.00019 9.85711ZM5.57162 9.85711C6.00019 9.85711 6.42876 9.42854 6.42876 8.99996C6.42876 8.57139 6.00019 8.14282 5.57162 8.14282C5.14305 8.14282 4.71533 8.57139 4.71533 8.99996C4.71533 9.42854 5.14305 9.85711 5.57162 9.85711ZM12.4288 9.85711C12.8573 9.85711 13.2859 9.42854 13.2859 8.99996C13.2859 8.57139 12.8573 8.14282 12.4288 8.14282C12.0002 8.14282 11.5725 8.57139 11.5725 8.99996C11.5725 9.42854 12.0002 9.85711 12.4288 9.85711Z" fill="#818181"/>
</svg>
