<svg width="18" height="18" viewBox="0 0 18 18" fill="none" xmlns="http://www.w3.org/2000/svg">
<path d="M13.5 5.86118V11.5514C13.0711 11.3038 12.5724 11.2046 12.0813 11.2692C11.5902 11.3339 11.1342 11.5588 10.784 11.909C10.4338 12.2592 10.2089 12.7153 10.1442 13.2063C10.0796 13.6974 10.1788 14.1961 10.4265 14.625C10.6741 15.054 11.0564 15.3892 11.514 15.5787C11.9716 15.7683 12.479 15.8015 12.9574 15.6733C13.4358 15.5451 13.8586 15.2626 14.1601 14.8697C14.4616 14.4767 14.625 13.9952 14.625 13.4999V2.16668C14.6252 2.02227 14.5906 1.87995 14.5242 1.75171C14.4578 1.62348 14.3615 1.51312 14.2434 1.42994C14.1254 1.34675 13.9891 1.2932 13.846 1.27379C13.7029 1.25438 13.5572 1.26969 13.4213 1.31843L6.22125 3.89018C6.04671 3.95276 5.89575 4.06773 5.78903 4.21936C5.6823 4.37099 5.62502 4.55188 5.625 4.73731V12.6753C5.1961 12.4277 4.69747 12.3285 4.20645 12.3931C3.71543 12.4577 3.25944 12.6825 2.9092 13.0327C2.55896 13.3828 2.33404 13.8388 2.2693 14.3298C2.20457 14.8208 2.30365 15.3194 2.55118 15.7484C2.79871 16.1774 3.18085 16.5127 3.63835 16.7023C4.09585 16.892 4.60315 16.9254 5.08157 16.7974C5.56 16.6694 5.98282 16.3871 6.28448 15.9943C6.58613 15.6015 6.74977 15.1202 6.75 14.6249V8.27206L13.5 5.86231V5.86118Z" fill="#4A90E2"/>
</svg>
