<svg width="18" height="18" viewBox="0 0 18 18" fill="none" xmlns="http://www.w3.org/2000/svg">
<path d="M8.9999 9C8.84077 9 8.68816 9.06321 8.57564 9.17574C8.46312 9.28826 8.3999 9.44087 8.3999 9.6C8.3999 9.75913 8.46312 9.91174 8.57564 10.0243C8.68816 10.1368 8.84077 10.2 8.9999 10.2C9.15903 10.2 9.31164 10.1368 9.42417 10.0243C9.53669 9.91174 9.5999 9.75913 9.5999 9.6C9.5999 9.44087 9.53669 9.28826 9.42417 9.17574C9.31164 9.06321 9.15903 9 8.9999 9Z" fill="#4A90E2"/>
<path d="M12 9.59998C12 7.94578 10.6542 6.59998 9 6.59998C7.3458 6.59998 6 7.94578 6 9.59998C6 10.773 6.6834 11.7804 7.6668 12.2736L8.316 11.2638C7.662 10.9938 7.2 10.3506 7.2 9.59998C7.2 8.60758 8.0076 7.79998 9 7.79998C9.9924 7.79998 10.8 8.60758 10.8 9.59998C10.8 10.3506 10.338 10.9938 9.6834 11.2632L10.3326 12.273C11.3166 11.7804 12 10.773 12 9.59998Z" fill="#4A90E2"/>
<path d="M14.4001 9.59995C14.4001 6.62275 11.9773 4.19995 9.0001 4.19995C6.0229 4.19995 3.6001 6.62275 3.6001 9.59995C3.6001 11.6184 4.7155 13.3794 6.3607 14.3058L7.0093 13.2966C5.6953 12.5862 4.8001 11.196 4.8001 9.59995C4.8001 7.28395 6.6841 5.39995 9.0001 5.39995C11.3161 5.39995 13.2001 7.28395 13.2001 9.59995C13.2001 11.196 12.3049 12.5862 10.9909 13.2972L11.6395 14.3064C13.2847 13.3794 14.4001 11.6184 14.4001 9.59995Z" fill="#4A90E2"/>
<path d="M9.0002 1.80005C4.6994 1.80005 1.2002 5.29925 1.2002 9.60005C1.2002 12.4644 2.7566 14.9664 5.0642 16.323L5.7122 15.3144C3.7364 14.1726 2.4002 12.0414 2.4002 9.60005C2.4002 5.96105 5.3612 3.00005 9.0002 3.00005C12.6392 3.00005 15.6002 5.96105 15.6002 9.60005C15.6002 12.0414 14.264 14.1726 12.2882 15.3144L12.9362 16.323C15.2438 14.9664 16.8002 12.4644 16.8002 9.60005C16.8002 5.29925 13.301 1.80005 9.0002 1.80005Z" fill="#4A90E2"/>
</svg>
