<svg width="18" height="18" viewBox="0 0 18 18" fill="none" xmlns="http://www.w3.org/2000/svg">
<path d="M13.7024 10.3635L12.3935 11.047C12.7918 11.7068 13.172 12.3295 13.4308 12.7525L14.5799 12.1528C14.3651 11.7118 14.0433 11.0537 13.7024 10.363V10.3635ZM10.7679 8.26204C11.0182 8.73454 11.5228 9.59347 12.047 10.4704L13.4049 9.76166C12.9155 8.76604 12.4374 7.81541 12.2315 7.44247C11.7275 6.53122 11.1166 5.69479 10.2886 4.39597C9.34757 2.91941 8.34126 1.30672 8.00938 1.61329C7.33776 1.82929 8.70519 3.91616 9.06463 4.82797C9.41113 5.70829 10.1204 7.0386 10.769 8.2626L10.7679 8.26204ZM14.882 12.7536L13.7795 13.3285L14.8933 15.9148C14.8933 15.9148 15.35 16.2996 15.9733 16.0347C16.5948 15.7703 16.4289 15.075 16.4289 15.075L14.882 12.7536V12.7536ZM13.6968 8.83691L15.3416 12.1725H16.457V8.83691H13.6968ZM10.3162 8.83354H7.65782L5.73182 12.1725H12.2906C12.1274 11.9025 10.5581 9.27004 10.3162 8.83354ZM1.81682 12.1579L3.75182 8.83691H1.17163V12.1725H1.80894L1.81738 12.1573L1.81682 12.1579ZM8.46444 5.70604C8.46425 5.49253 8.39193 5.28535 8.25922 5.1181C8.12651 4.95085 7.94119 4.83334 7.73331 4.78463C7.52544 4.73592 7.3072 4.75886 7.114 4.84974C6.9208 4.94061 6.76397 5.09409 6.66894 5.28529L8.34294 6.16954C8.42057 6.03285 8.46444 5.87479 8.46444 5.7066V5.70604ZM8.06788 6.78379L6.27463 5.83654L5.41119 7.31929L7.20951 8.26991L8.06788 6.78379ZM1.79601 15.1234L1.57944 15.7467V15.9154L1.74707 15.8423L2.15488 15.3388L3.84126 14.0142L2.07669 13.086L1.79657 15.1223L1.79601 15.1234ZM5.07369 7.89979L2.39788 12.4954L4.21476 13.455L6.87426 8.85041L5.07426 7.89979H5.07369Z" fill="#4A90E2"/>
</svg>
