<svg width="18" height="18" viewBox="0 0 18 18" fill="none" xmlns="http://www.w3.org/2000/svg">
<path d="M10.8844 4.21875C12.7125 4.21875 14.175 5.70938 14.175 7.50938V7.7625C13.4156 7.81875 12.7125 8.12813 12.1781 8.60625C12.5719 8.38125 13.05 8.24062 13.5563 8.24062C13.7531 8.24062 13.9219 8.26875 14.0906 8.29688C14.4 8.35313 14.6812 8.46563 14.9344 8.60625C15.75 9.08438 16.3125 9.98437 16.3125 10.9969C16.3125 12.3187 15.3844 13.4156 14.175 13.6969C13.9781 13.7531 13.7813 13.7812 13.5563 13.7812H3.9375C3.68438 13.7812 3.45938 13.7531 3.23438 13.6687C2.33437 13.3594 1.6875 12.5156 1.6875 11.5312C1.6875 10.8562 1.99687 10.2375 2.44687 9.84375C2.67187 9.64688 2.89688 9.50625 3.17813 9.42188C3.40313 9.3375 3.65625 9.28125 3.90937 9.28125C4.64062 9.28125 5.2875 9.61875 5.68125 10.1531H5.70937C5.23125 9.28125 4.33125 8.6625 3.29062 8.55C3.68437 7.2 4.92187 6.1875 6.4125 6.1875C6.58125 6.1875 6.72187 6.21563 6.8625 6.21563C7.17187 6.27188 7.45312 6.32812 7.70625 6.46875C8.69062 6.91875 9.42187 7.84687 9.59062 8.97187V8.94375C9.59062 7.67812 8.94375 6.55312 7.95937 5.90625C8.57812 4.89375 9.64688 4.21875 10.8844 4.21875V4.21875ZM10.8844 3.09375C9.36563 3.09375 7.95937 3.88125 7.14375 5.14687C7.11562 5.14687 7.0875 5.14688 7.05938 5.11875C6.83438 5.09063 6.6375 5.0625 6.44062 5.0625C4.5 5.0625 2.78437 6.35625 2.25 8.24062L2.10938 8.69062C1.96875 8.775 1.82812 8.8875 1.71562 9C0.984375 9.61875 0.5625 10.5469 0.5625 11.5312C0.5625 12.9937 1.49062 14.2875 2.86875 14.7375C3.20625 14.85 3.57188 14.9062 3.9375 14.9062H13.5563C13.8375 14.9062 14.1469 14.8781 14.4281 14.7937C16.2 14.3719 17.4375 12.825 17.4375 10.9969C17.4375 9.61875 16.6781 8.325 15.4969 7.62188L15.3281 7.5375V7.50938C15.3 5.09063 13.3313 3.09375 10.8844 3.09375V3.09375Z" fill="#4A90E2"/>
</svg>
