<svg width="18" height="18" viewBox="0 0 18 18" fill="none" xmlns="http://www.w3.org/2000/svg">
<path d="M9 1.125C4.65117 1.125 1.125 4.65117 1.125 9C1.125 13.3488 4.65117 16.875 9 16.875C13.3488 16.875 16.875 13.3488 16.875 9C16.875 4.65117 13.3488 1.125 9 1.125ZM9 15.5391C5.38945 15.5391 2.46094 12.6105 2.46094 9C2.46094 5.38945 5.38945 2.46094 9 2.46094C12.6105 2.46094 15.5391 5.38945 15.5391 9C15.5391 12.6105 12.6105 15.5391 9 15.5391Z" fill="#4A90E2"/>
<path d="M12.0709 11.2254L9.56426 9.41309V5.0625C9.56426 4.98516 9.50098 4.92188 9.42363 4.92188H8.57812C8.50078 4.92188 8.4375 4.98516 8.4375 5.0625V9.90352C8.4375 9.94922 8.45859 9.99141 8.49551 10.0178L11.4029 12.1377C11.4662 12.1834 11.5541 12.1693 11.5998 12.1078L12.1025 11.4223C12.1482 11.3572 12.1342 11.2693 12.0709 11.2254V11.2254Z" fill="#4A90E2"/>
</svg>
