<svg width="13" height="13" viewBox="0 0 13 13" fill="none" xmlns="http://www.w3.org/2000/svg">
<path fill-rule="evenodd" clip-rule="evenodd" d="M9.3113 8.384L12.8081 11.8809C12.931 12.0039 13.0001 12.1707 13 12.3446C12.9999 12.5185 12.9308 12.6852 12.8078 12.8081C12.6848 12.931 12.518 13.0001 12.3442 13C12.1703 12.9999 12.0035 12.9308 11.8806 12.8078L8.38379 9.31088C7.33845 10.1206 6.02393 10.5016 4.70765 10.3764C3.39136 10.2513 2.17218 9.62939 1.29814 8.63724C0.42409 7.64509 -0.0391705 6.35722 0.00259749 5.03563C0.0443655 3.71403 0.588024 2.45799 1.52298 1.52301C2.45793 0.588039 3.71394 0.0443666 5.0355 0.00259756C6.35707 -0.0391714 7.6449 0.424101 8.63703 1.29817C9.62915 2.17224 10.251 3.39144 10.3762 4.70776C10.5013 6.02408 10.1203 7.33864 9.31065 8.384H9.3113ZM5.20024 9.09964C6.23454 9.09964 7.22647 8.68875 7.95783 7.95738C8.68919 7.226 9.10006 6.23404 9.10006 5.19972C9.10006 4.1654 8.68919 3.17344 7.95783 2.44206C7.22647 1.71069 6.23454 1.29981 5.20024 1.29981C4.16595 1.29981 3.17401 1.71069 2.44265 2.44206C1.7113 3.17344 1.30042 4.1654 1.30042 5.19972C1.30042 6.23404 1.7113 7.226 2.44265 7.95738C3.17401 8.68875 4.16595 9.09964 5.20024 9.09964V9.09964Z" fill="#818181"/>
</svg>
